HIERARCHY
ROOT Hips
{
	OFFSET -0.179506 -22.333345 2.821913
	CHANNELS 6 Xposition Yposition Zposition Zrotation Yrotation Xrotation 
	JOINT LeftUpLeg
	{
		OFFSET 6.951974 -9.140623 -0.681533
		CHANNELS 3 Zrotation Yrotation Xrotation
		JOINT LeftLeg
		{
			OFFSET 3.427654 -37.519855 -0.449580
			CHANNELS 3 Zrotation Yrotation Xrotation
			JOINT LeftFoot
			{
				OFFSET -1.359570 -39.796059 -4.369333
				CHANNELS 3 Zrotation Yrotation Xrotation
				JOINT LeftToe
				{
					OFFSET 2.635814 -5.579078 11.928840
					CHANNELS 3 Zrotation Yrotation Xrotation
					End Site
					{
						OFFSET 0.000000 0.000000 0.000000
					}
				}
			}
		}
	}
	JOINT RightUpLeg
	{
		OFFSET -6.767048 -9.052170 -0.431982
		CHANNELS 3 Zrotation Yrotation Xrotation
		JOINT RightLeg
		{
			OFFSET -3.829005 -38.256897 -0.885003
			CHANNELS 3 Zrotation Yrotation Xrotation
			JOINT RightFoot
			{
				OFFSET 1.577377 -39.841461 -4.231180
				CHANNELS 3 Zrotation Yrotation Xrotation
				JOINT RightToe
				{
					OFFSET -2.537174 -4.814398 12.334795
					CHANNELS 3 Zrotation Yrotation Xrotation
					End Site
					{
						OFFSET 0.000000 0.000000 0.000000
					}
				}
			}
		}
	}
	JOINT Spine
	{
		OFFSET -0.253288 10.896323 -2.669631
		CHANNELS 3 Zrotation Yrotation Xrotation
		JOINT Spine1
		{
			OFFSET 0.548704 13.518043 0.109247
			CHANNELS 3 Zrotation Yrotation Xrotation
			JOINT Spine2
			{
				OFFSET 0.145701 5.292222 2.542457
				CHANNELS 3 Zrotation Yrotation Xrotation
				JOINT Neck
				{
					OFFSET -0.277840 21.387037 -4.285703
					CHANNELS 3 Zrotation Yrotation Xrotation
					JOINT Head
					{
						OFFSET 0.515184 6.496960 5.134897
						CHANNELS 3 Zrotation Yrotation Xrotation
						End Site
						{
							OFFSET 0.000000 0.000000 0.000000
						}
					}
				}
				JOINT LeftShoulder
				{
					OFFSET 7.884473 12.174932 -3.408961
					CHANNELS 3 Zrotation Yrotation Xrotation
					JOINT LeftArm
					{
						OFFSET 9.097692 3.046888 -0.886815
						CHANNELS 3 Zrotation Yrotation Xrotation
						JOINT LeftForeArm
						{
							OFFSET 25.961220 -1.277207 -2.745643
							CHANNELS 3 Zrotation Yrotation Xrotation
							JOINT LeftHand
							{
								OFFSET 24.923361 0.898606 -0.117091
								CHANNELS 3 Zrotation Yrotation Xrotation
								End Site
								{
									OFFSET 0.000000 0.000000 0.000000
								}
							}
						}
					}
				}
				JOINT RightShoulder
				{
					OFFSET -8.175920 11.883285 -3.861528
					CHANNELS 3 Zrotation Yrotation Xrotation
					JOINT RightArm
					{
						OFFSET -9.601238 3.255117 -0.914307
						CHANNELS 3 Zrotation Yrotation Xrotation
						JOINT RightForeArm
						{
							OFFSET -25.374195 -1.332924 -2.140099
							CHANNELS 3 Zrotation Yrotation Xrotation
							JOINT RightHand
							{
								OFFSET -25.529810 0.777228 -0.555919
								CHANNELS 3 Zrotation Yrotation Xrotation
								End Site
								{
									OFFSET 0.000000 0.000000 0.000000
								}
							}
						}
					}
				}
			}
		}
	}
}
MOTION
Frames: 14
Frame Time: 0.033333
-0.179506 101.307610 2.821913 117.238968 -51.909053 160.545510 0.992220 -0.384923 0.801876 -0.206008 -4.165889 4.591164 -1.622959 8.418625 19.101914 -1.113822 -0.681371 -0.467531 -10.327597 -6.832882 -14.260821 -0.793676 -9.668419 27.702632 7.779610 -13.907842 26.291732 0.480388 1.118626 -1.232465 1.233451 -3.452176 17.017029 -0.675710 -0.069704 -14.341623 3.393035 -3.399539 12.220742 -2.047731 -5.510221 -7.042579 3.371447 4.799322 -0.468479 -7.828686 4.146288 7.108688 -28.047353 10.639242 23.211182 -113.736625 -66.225392 115.196946 5.121040 -15.236131 -34.347538 3.550478 -4.833680 -0.626741 35.920902 -11.870814 20.332080 149.749278 75.056870 153.558741 2.356655 7.015330 -22.812286 
-0.086531 101.341179 2.699374 117.282192 -52.043116 160.406885 1.062773 -0.327425 0.933109 -0.216587 -4.346098 4.520099 -1.864130 8.462455 19.430771 -1.178948 -0.682722 -0.508580 -10.323802 -6.931005 -14.287465 -0.839253 -9.642126 28.017906 7.984927 -13.890200 26.413913 0.466861 1.105485 -1.247143 1.250178 -3.460864 17.137772 -0.908789 -0.052829 -14.565917 3.479781 -3.417146 12.424697 -2.037751 -5.540221 -7.088030 3.609748 4.990910 -0.360274 -7.707231 3.970192 7.022581 -27.918021 10.695309 23.248794 -113.302372 -66.057383 114.769377 5.287606 -15.033174 -34.647145 3.151869 -4.671515 -0.629204 36.024065 -11.911454 20.529129 147.072609 74.895897 151.162430 2.509843 6.984314 -22.228758 
-0.056255 101.372803 2.629176 117.500975 -52.533523 160.233239 1.099448 -0.309227 1.060496 -0.182671 -4.724264 4.101472 -2.102742 8.499983 19.517236 -1.197284 -0.678088 -0.512746 -10.256186 -7.031127 -14.453138 -0.856456 -9.515759 28.245036 8.274320 -13.870766 26.523077 0.496594 1.127377 -1.195232 1.207416 -3.509195 17.307760 -1.126523 -0.045316 -14.820055 3.553869 -3.419451 12.610949 -2.192840 -5.546070 -7.251836 3.755768 5.041983 -0.398552 -7.497141 3.815879 6.900080 -27.992122 10.662114 23.151807 -113.177334 -65.903467 114.781893 5.271939 -15.096352 -34.715866 2.858362 -4.662917 -0.493066 36.029712 -12.148449 20.639788 145.120140 74.709862 149.584486 2.515106 7.085685 -21.635041 
0.014290 101.398483 2.581980 117.802777 -53.162014 159.977046 1.073968 -0.361447 1.031111 -0.100133 -4.989851 3.979998 -2.321530 8.439475 19.523439 -1.207722 -0.706164 -0.555983 -10.199017 -7.119125 -14.642385 -0.891508 -9.515593 28.327418 8.630730 -13.956355 26.685328 0.415631 1.165240 -1.186115 1.109656 -3.487067 17.502173 -1.221254 -0.060707 -14.897718 3.599094 -3.433831 12.677403 -2.225807 -5.503961 -7.449659 3.894496 5.199424 -0.388990 -7.500693 3.642417 6.732232 -27.874613 10.560071 23.067054 -113.203790 -65.702414 114.812689 4.926264 -15.145272 -34.666861 2.856240 -4.743289 -0.358079 35.902368 -12.411499 20.745417 143.892092 74.665595 148.406837 2.813809 7.061974 -21.270736 
0.126007 101.415672 2.672788 117.701079 -53.608788 160.173699 0.995240 -0.307669 1.005267 -0.192092 -5.193239 3.580496 -2.673132 8.384926 19.717540 -1.232053 -0.721039 -0.564544 -10.091763 -7.210502 -14.867998 -0.934627 -9.481756 27.953000 8.915902 -14.003426 26.897376 0.451306 1.185097 -1.126273 1.052519 -3.554946 17.792561 -1.429400 -0.030818 -14.982825 3.642609 -3.395250 12.668055 -2.442910 -5.409916 -7.472283 4.029669 5.492116 -0.468971 -7.471361 3.379831 6.756720 -28.152576 10.570595 22.850462 -112.356323 -65.757171 114.294913 3.921995 -15.254926 -33.782295 2.582366 -4.549380 -0.087236 36.071503 -12.684790 20.626912 142.559303 74.654281 147.297048 3.898831 6.950637 -20.966812 
0.214099 101.424232 3.122314 118.148894 -54.687445 159.837245 0.912436 -0.311323 0.625577 -0.301648 -5.274444 3.776437 -3.042580 8.229412 19.641000 -1.208319 -0.762988 -0.615525 -9.869024 -7.282881 -15.003675 -0.969725 -9.517218 27.540817 9.182778 -13.987900 27.168137 0.431279 1.220869 -1.125860 0.977369 -3.551993 18.185765 -1.595456 -0.115369 -14.891588 3.644666 -3.330603 12.647858 -2.724182 -5.125110 -7.444768 4.018234 5.772006 -0.595666 -7.470305 2.823488 6.610269 -28.611975 10.279574 22.545347 -111.969613 -65.809425 114.368888 3.480971 -15.313064 -32.604006 2.413152 -4.487919 0.180195 36.124066 -12.959462 20.343543 140.760098 75.222498 145.973266 4.250215 6.781019 -19.952808 
0.444150 101.416023 3.916070 118.429907 -56.094144 159.500317 0.747359 -0.371486 -0.000081 -0.582938 -5.329525 4.285503 -3.213458 8.118521 19.753175 -1.213511 -0.765605 -0.590080 -9.596451 -7.222864 -15.163091 -0.972523 -9.259634 26.684728 9.433770 -14.053210 27.471727 0.462481 1.271437 -1.173031 0.839798 -3.488321 18.834088 -1.668262 -0.219794 -14.752501 3.555906 -3.259148 12.583172 -3.205536 -4.864821 -7.617020 4.002048 6.201341 -0.902016 -7.791967 2.079396 6.381441 -28.887206 10.047846 22.191350 -110.330164 -66.013781 113.146197 3.285062 -15.220486 -31.494800 2.549672 -4.256957 0.423926 35.652300 -13.002632 20.105451 138.392698 75.998439 144.038696 4.220392 6.664248 -18.161731 
0.634301 101.404709 4.752472 118.739063 -57.680913 158.956353 0.607727 -0.564595 -0.474882 -0.804903 -5.533613 4.751983 -3.057412 8.033436 19.706306 -1.209217 -0.810876 -0.578163 -9.188829 -6.947713 -15.296308 -0.991072 -8.865196 26.008451 9.538117 -13.900464 28.018544 0.513672 1.281421 -1.213644 0.640937 -3.450463 19.546744 -1.677418 -0.234524 -14.364775 3.460852 -3.171103 12.325515 -3.755224 -4.741848 -7.452744 3.929509 6.456402 -1.367229 -8.289317 1.492419 6.426749 -28.864323 9.867048 21.782512 -108.524341 -66.640338 111.663011 2.558393 -15.552209 -29.796251 2.914855 -4.004173 0.904992 34.992201 -13.111093 19.643115 137.435664 76.649669 143.514248 4.873230 6.714061 -16.123297 
0.596858 101.382439 4.955682 118.676696 -58.801501 159.081113 0.608228 -0.528458 -0.964907 -0.843140 -5.455558 4.895797 -2.805947 7.928159 19.297733 -1.195796 -0.884153 -0.575877 -8.659003 -6.961676 -15.653397 -1.096451 -9.139794 25.266264 9.303470 -13.870184 28.293078 0.678456 1.233827 -1.304221 0.489274 -3.383626 20.270484 -1.667212 -0.273586 -13.838497 3.359138 -3.043705 11.956644 -4.437893 -4.346165 -6.897796 3.833455 6.954411 -1.631650 -8.589270 0.887677 6.692468 -28.782429 9.700689 21.473652 -104.984688 -67.539498 108.783717 1.529334 -15.368067 -27.488188 3.211676 -3.676315 1.519643 35.136983 -13.387494 19.165846 139.798272 77.209937 146.463862 6.021172 6.338030 -14.162745 
0.553312 101.341858 5.188467 118.811953 -60.035894 159.487755 0.541900 -0.515730 -1.927671 -0.740006 -5.255488 5.114334 -2.792820 7.635634 18.783278 -1.216072 -0.855613 -0.465883 -8.222174 -6.981514 -15.883131 -1.048420 -9.429379 23.704219 9.219955 -14.111899 28.399213 0.754037 1.189526 -1.309322 0.269501 -3.187570 21.191272 -1.666033 -0.478664 -13.502405 3.341140 -2.975128 11.804744 -5.231410 -4.216001 -6.887822 3.610083 7.139595 -2.192493 -8.729469 0.119719 6.498955 -29.198127 9.383064 20.816328 -99.388629 -68.264495 103.846765 0.223033 -15.572483 -25.159223 3.472122 -3.201128 1.833590 35.300117 -13.501977 18.586935 139.314498 78.415136 146.224700 7.364618 6.111427 -12.414667 
0.510623 101.267632 5.430130 119.129711 -61.988420 158.957582 0.365022 -0.642028 -2.816603 -0.898702 -5.023907 6.113656 -2.754342 7.250203 18.234284 -1.151549 -0.904815 -0.517341 -7.632893 -6.727746 -16.321092 -1.210115 -9.422276 22.533140 9.163002 -13.899387 28.586953 0.674653 1.185241 -1.350031 -0.033001 -3.068640 22.415853 -1.561542 -0.514617 -12.586414 3.177854 -2.828810 11.087960 -5.864302 -3.828560 -6.327153 3.303647 7.638590 -2.991066 -9.335488 -1.063901 6.392063 -29.695751 8.634968 19.991086 -92.031884 -69.347253 97.334666 -0.609034 -15.736924 -22.107705 4.023854 -2.424965 2.548906 35.578232 -13.242412 17.668450 135.505133 80.957033 142.359067 7.914501 5.837633 -10.501395 
0.461632 101.162521 5.674962 118.250311 -63.889606 159.757733 0.151779 -0.577225 -4.189557 -1.361957 -4.581223 7.152003 -2.604028 6.964359 17.587828 -1.123489 -0.979765 -0.525602 -6.893504 -6.435829 -16.995555 -1.350360 -9.659630 21.174347 8.672355 -13.654469 28.360647 0.651591 1.191773 -1.491834 -0.302650 -2.985201 24.106403 -1.268685 -0.637440 -11.291970 3.033538 -2.729235 9.990745 -6.884646 -3.535421 -5.426188 2.907240 8.384384 -3.841438 -10.297619 -2.646648 6.253450 -30.446972 7.674583 19.042368 -81.713139 -70.212065 88.132817 -1.425378 -15.366168 -17.912953 4.791712 -1.391995 3.122020 35.785140 -12.770910 16.542656 127.918215 84.569862 134.944707 8.745697 4.979485 -7.584710 
0.397936 101.018860 5.925909 117.839953 -65.956383 160.274280 -0.001114 -0.687013 -6.018940 -1.507478 -4.231282 8.622875 -2.252512 6.616380 16.648440 -1.114067 -1.041466 -0.533229 -6.034549 -5.923445 -17.778113 -1.559249 -9.442754 19.239117 8.620064 -13.314286 28.096824 0.479276 1.187136 -1.615377 -0.625392 -2.858796 25.931042 -0.825082 -0.844883 -10.027495 2.822256 -2.747096 8.957381 -7.759460 -3.152293 -5.011443 2.546895 8.782210 -4.881885 -11.284141 -4.355967 6.150932 -31.480849 6.432067 17.909988 -68.453339 -70.030150 75.487732 -2.127868 -15.011904 -14.278997 5.578568 0.110902 3.536243 36.018527 -11.793101 15.053795 53.168884 86.956775 59.843942 8.781945 4.750196 -5.270003 
0.314030 100.821358 6.154195 117.667463 -67.877745 160.536582 -0.126176 -0.749065 -7.694208 -1.523809 -3.847018 9.837553 -1.933991 6.009603 15.340341 -1.136988 -1.106151 -0.615705 -5.253423 -5.298318 -18.848156 -1.834670 -9.326560 17.069047 8.402202 -12.822018 27.316677 0.401348 1.043470 -1.726830 -1.122155 -2.729492 28.230659 -0.108160 -1.035325 -8.190425 2.620762 -2.815199 7.441886 -8.712460 -2.378329 -4.522629 2.123147 9.675559 -6.372961 -12.409610 -6.358565 5.935751 -32.306708 5.152902 16.438316 -54.330722 -69.068267 61.804914 -3.193489 -14.572404 -10.868625 6.473182 2.031518 3.820553 36.595270 -10.316005 13.167392 0.336607 81.621751 6.274368 9.201147 4.691742 -3.775449 
